<svg xmlns="http://www.w3.org/2000/svg" height="800px" width="800px" viewBox="0 0 24 24" fill="none">
  <path fill-rule="evenodd" clip-rule="evenodd" d="M0 12C0 5.373 5.373 0 12 0s12 5.373 12 12-5.373 12-12 12S0 18.627 0 12zm17.602-1.404c.54 0 .98.441.98.982s-.441.982-.98.982c-.542 0-.982-.441-.982-.982s.44-.982.982-.982zM7.4 11.578c.542 0 .982.441.982.982s-.44.982-.982.982c-.54 0-.98-.441-.98-.982s.44-.982.98-.982zm8.95 3.158c.222.14.288.436.14.664-1.08 1.7-3.504 1.89-4.368 1.89-1.31 0-3.238-.346-4.368-1.89-.148-.228-.082-.524.14-.664.228-.144.524-.08.668.148.858 1.274 2.58 1.56 3.56 1.56.978 0 2.72-.286 3.56-1.56.144-.228.44-.292.668-.148zm-1.692-6.932l-1.112 5.204c.922.07 1.77.292 2.39.64.148-.148.36-.23.58-.23.542 0 .98.44.98.982 0 .54-.441.98-.98.98-.542 0-.982-.44-.982-.98 0-.062.007-.12.02-.18-.59-.346-1.376-.554-2.28-.61-.514.63-1.496 1.07-2.59 1.07-1.096 0-2.078-.44-2.594-1.07-.898.056-1.682.264-2.268.61.01.06.016.118.016.18 0 .54-.44.98-.982.98-.542 0-.98-.44-.98-.98 0-.54.44-.982.98-.982.228 0 .436.082.58.23.624-.348 1.468-.57 2.39-.64L9.34 7.804c-.308-.072-.62-.154-.944-.248-.514-.15-.832-.7-.692-1.234.14-.54.662-.86 1.176-.71.768.216 1.488.448 2.172.696C11.92 6.01 12.444 6 12.974 6c.53 0 1.056.01 1.554.308.692-.234 1.396-.462 2.106-.672.514-.148 1.036.17 1.176.71.14.534-.178 1.084-.692 1.234-.33.094-.646.176-.964.248z" fill="#000"/>
</svg>
